<?xml version="1.0" encoding="utf-8"?>
<!-- Svg Vector Icons : http://www.onlinewebfonts.com/icon -->
<!DOCTYPE svg PUBLIC "-//W3C//DTD SVG 1.1//EN" "http://www.w3.org/Graphics/SVG/1.1/DTD/svg11.dtd">
<svg version="1.1" xmlns="http://www.w3.org/2000/svg" xmlns:xlink="http://www.w3.org/1999/xlink" x="0px" y="0px" viewBox="0 0 1000 1000" enable-background="new 0 0 1000 1000" xml:space="preserve">
<metadata> Svg Vector Icons : http://www.onlinewebfonts.com/icon </metadata>
<g><g transform="translate(0.000000,512.000000) scale(0.100000,-0.100000)"><path d="M1694.9,5008.8c-257.5-48-532.3-163.3-768.6-322.8C776.4,4584.1,542,4349.7,438.2,4194c-115.3-167.2-240.2-440-294-636L100,3394.6V118.4v-3276.3l44.2-163.3c53.8-194.1,178.7-467,294-636C543.9-4114.8,776.4-4347.3,934-4453c169.1-115.3,442-240.2,636-294l163.3-44.2H5000h3266.7l163.3,44.2c194.1,53.8,466.9,178.7,636,294c157.6,105.7,390.1,338.2,495.8,495.8c115.3,169.1,240.2,442,294,636l44.2,163.3V118.4v3276.3l-44.2,163.3c-194.1,707.1-703.3,1216.4-1425.8,1427.7l-144.1,40.4l-3228.2,3.8C2473.1,5033.7,1802.5,5029.9,1694.9,5008.8z M8872,2520.3V1079.2H7267.5H5662.9v1441.2v1441.2h1604.5H8872V2520.3z M1466.2,858.2c50-21.1,76.9-51.9,109.5-119.1l42.3-92.2l5.8-1589.2l5.8-1591h3343.5h3345.5l-5.8,976.1c-5.8,914.7-3.8,978.1,28.8,1045.3c48,99.9,147.9,157.6,272.9,159.5c115.3,0,186.4-40.4,247.9-146c38.4-63.4,38.4-96.1,32.7-1612.2c-3.8-1447-5.8-1550.7-38.4-1593c-53.8-71.1-155.7-117.2-263.3-117.2c-130.7,0-184.5,32.6-236.3,138.3c-42.3,82.6-46.1,117.2-46.1,361.3l-1.9,269H4969.3H1631.5l9.6-180.6c11.5-190.2-13.5-380.5-63.4-476.6c-76.9-147.9-388.2-147.9-466.9,0c-11.5,23.1-21.1,755.2-28.8,2033c-3.8,1097.2-9.6,2040.7-9.6,2092.6c-1.9,232.5,71.1,405.4,190.2,445.8C1352.9,892.8,1385.5,892.8,1466.2,858.2z M7242.5-609.9c259.4-21.1,359.3-63.4,432.3-188.3c98-169.1,136.4-490,111.4-953.1l-13.4-263.2H5741.7h-2033l-11.5,332.4c-17.3,499.6,17.3,770.6,121.1,914.7c19.2,30.8,82.6,74.9,138.4,99.9l101.8,46.1l1393.1,9.6c766.7,5.7,1437.3,11.5,1489.2,13.4C6994.6-596.5,7129.1-602.2,7242.5-609.9z M2995.8-673.3c136.4-63.4,255.6-180.6,320.9-320.9c44.2-94.2,50-132.6,50-299.8c0-167.2-5.8-205.6-51.9-301.7c-67.3-144.1-199.8-272.9-357.4-347.8c-113.4-53.8-148-61.5-292.1-61.5c-134.5,0-180.6,7.7-257.5,46.1c-388.2,190.2-538,707.1-301.7,1033.8c76.9,105.7,163.3,169.1,342,247.9c136.4,61.5,163.3,67.2,294,59.6C2845.9-621.4,2918.9-638.7,2995.8-673.3z"/><path d="M5932,3577.2v-134.5h134.5h136.4l-5.8,130.7l-5.8,128.8l-128.8,5.8l-130.7,5.8V3577.2z"/><path d="M6329.7,3698.3c-7.7-5.8-13.5-67.3-13.5-134.5v-121.1h134.5h134.5v134.5v134.5h-121.1C6397,3711.7,6335.5,3705.9,6329.7,3698.3z"/><path d="M6719.8,3577.2v-134.5h134.5h136.4l-5.8,130.7l-5.8,128.8l-128.8,5.8l-130.7,5.8V3577.2z"/><path d="M5932,2270.5v-922.4h1345.1h1345.1l-3.8,918.5l-5.8,916.6l-1339.3,5.8l-1341.3,3.8V2270.5z M7073.4,2520.3c50-211.4,98-380.5,103.8-376.6c7.7,3.8,61.5,103.8,119.1,221c57.7,117.2,113.4,211.4,124.9,207.5c9.6-3.8,53.8-103.8,98-224.8c44.2-119.1,88.4-232.5,101.9-251.7c19.2-34.6,51.9-36.5,405.4-36.5h384.3v-96.1V1867h-463.1h-461.2l-28.8,73c-15.4,38.4-36.5,88.4-44.2,109.5c-13.4,30.7-42.3-15.4-153.7-249.8c-99.9-205.6-144.1-280.5-155.6-259.4c-7.7,15.4-51.9,194.1-98,393.9c-44.2,201.8-88.4,372.8-98,382.4c-7.7,9.6-48-57.6-90.3-148l-76.9-167.2h-309.4h-307.4v96.1v96.1h242.1h240.2l172.9,355.5c96.1,196,180.6,355.5,188.3,355.5C6975.4,2904.6,7023.4,2731.7,7073.4,2520.3z"/></g></g>
</svg>